<?xml version="1.0" encoding="UTF-8"?>
<!DOCTYPE svg PUBLIC "-//W3C//DTD SVG 1.1//EN" "http://www.w3.org/Graphics/SVG/1.1/DTD/svg11.dtd">
<!-- Creator: CorelDRAW 2017 -->
<svg xmlns="http://www.w3.org/2000/svg" xml:space="preserve" width="7.09722in" height="7.10027in" version="1.1" style="shape-rendering:geometricPrecision; text-rendering:geometricPrecision; image-rendering:optimizeQuality; fill-rule:evenodd; clip-rule:evenodd"
viewBox="0 0 3275 3277"
 xmlns:xlink="http://www.w3.org/1999/xlink">
 <defs>
  <style type="text/css">
   <![CDATA[
    .fil0 {fill:black}
   ]]>
  </style>
 </defs>
 <g id="Layer_x0020_1">
  <metadata id="CorelCorpID_0Corel-Layer"/>
  <g id="_1562333649472">
   <g>
    <path class="fil0" d="M1458 4c-29,9 -54,25 -74,47 -35,37 -43,60 -46,128l-3 63 -418 0 -417 -1 -17 -28c-54,-90 -180,-104 -253,-28 -65,67 -61,175 8,235 34,29 62,40 110,40 64,0 112,-31 153,-99 6,-10 31,-10 292,-9l285 2 -74 37c-460,226 -765,666 -815,1175l-8 78 -33 3c-57,6 -106,39 -133,91 -13,24 -14,35 -14,147 0,113 1,124 14,148 20,37 62,72 103,83 51,15 226,10 258,-6 40,-21 61,-40 80,-75l19 -35 0 -115c0,-108 -1,-117 -15,-145 -27,-54 -90,-95 -147,-95l-22 0 4 -53c15,-174 61,-336 139,-495 160,-319 438,-561 775,-672 47,-15 95,-30 106,-33l20 -4 3 47c3,53 18,87 51,118 46,43 49,44 231,46 190,3 218,-2 262,-42 37,-33 52,-67 56,-122l3 -47 20 4c11,3 59,17 106,33 290,96 540,291 708,554 45,69 114,217 140,297 28,87 52,199 61,286 10,89 10,84 -14,84 -56,0 -120,41 -147,95 -14,28 -15,38 -15,145 0,101 1,119 12,138 22,42 43,64 76,81 31,16 40,17 133,20 119,3 154,-4 197,-41 51,-44 56,-59 56,-198 0,-113 -1,-124 -14,-147 -28,-52 -76,-85 -133,-91l-33 -3 -8 -78c-32,-333 -174,-640 -404,-878 -115,-119 -253,-220 -403,-294l-81 -40 285 -2c261,-1 286,-1 292,9 41,68 89,99 153,99 47,0 76,-10 110,-40 69,-60 72,-168 8,-235 -73,-76 -199,-62 -253,28l-17 28 -417 1 -418 0 -3 -63c-3,-70 -14,-99 -51,-133 -46,-44 -48,-44 -239,-46 -95,-1 -180,1 -189,4l0 0z"/>
    <path class="fil0" d="M1483 881c-12,13 -154,193 -315,400 -243,311 -294,379 -294,395 0,13 17,51 46,104 108,196 179,415 207,634 14,106 14,107 29,122 13,13 23,13 481,13 458,0 468,0 481,-13 15,-15 16,-21 26,-106 26,-222 104,-461 220,-668 38,-68 43,-91 25,-117 -40,-58 -608,-777 -617,-782 -19,-10 -42,-8 -60,7l-17 13 0 397c0,382 1,397 12,409 7,7 22,17 35,23 40,19 79,59 101,104 19,39 21,47 21,104 0,74 -12,105 -61,156 -47,51 -96,71 -167,71 -71,0 -119,-21 -167,-71 -49,-51 -61,-83 -61,-156 0,-56 2,-65 21,-104 22,-46 61,-85 101,-104 13,-6 28,-16 35,-23 12,-12 12,-27 12,-408l0 -397 -15 -13c-24,-23 -56,-19 -82,10l0 0z"/>
    <path class="fil0" d="M1077 2667c-62,19 -107,59 -136,118l-18 37 0 147c0,138 1,149 14,178 19,42 67,92 110,112l36 18 554 0 554 0 30 -14c42,-19 92,-67 112,-110l18 -36 0 -147c0,-147 0,-147 -17,-183 -22,-46 -62,-85 -107,-108l-36 -17 -545 -1c-427,-1 -551,1 -570,7l0 0z"/>
   </g>
  </g>
 </g>
</svg>
