<?xml version="1.0" encoding="UTF-8"?>
<!DOCTYPE svg PUBLIC "-//W3C//DTD SVG 1.1//EN" "http://www.w3.org/Graphics/SVG/1.1/DTD/svg11.dtd">
<!-- Creator: CorelDRAW 2017 -->
<svg xmlns="http://www.w3.org/2000/svg" xml:space="preserve" width="7.09722in" height="7.10027in" version="1.1" style="shape-rendering:geometricPrecision; text-rendering:geometricPrecision; image-rendering:optimizeQuality; fill-rule:evenodd; clip-rule:evenodd"
viewBox="0 0 43758 43777"
 xmlns:xlink="http://www.w3.org/1999/xlink">
 <defs>
  <style type="text/css">
   <![CDATA[
    .fil0 {fill:white}
   ]]>
  </style>
 </defs>
 <g id="Layer_x0020_1">
  <metadata id="CorelCorpID_0Corel-Layer"/>
  <g id="_1597420641600">
   <g>
    <path class="fil0" d="M19481 53c-385,120 -728,334 -993,625 -462,488 -574,805 -617,1713l-34 839 -5583 0 -5575 -9 -231 -377c-728,-1199 -2406,-1387 -3382,-368 -865,899 -814,2338 103,3143 454,394 831,531 1456,531 856,0 1576,-445 1978,-1216l128 -248 5549 0 5558 0 34 873c43,985 180,1362 685,1833 608,574 659,591 3083,617 2543,34 2911,-26 3502,-557 488,-445 694,-891 745,-1636l43 -625 265 51c702,146 2680,873 3605,1327 4033,1970 7108,5309 8820,9565 574,1421 1062,3511 1199,5181l60 668 -291 0c-762,0 -1610,548 -1970,1267 -188,377 -197,505 -197,1944 0,1456 9,1567 206,1927 274,531 488,754 993,1010 394,206 522,223 1764,257 1584,43 2064,-60 2629,-548 685,-582 745,-788 745,-2646 0,-1507 -17,-1653 -188,-1970 -368,-694 -1019,-1139 -1781,-1216l-445 -43 -103 -1045c-574,-5943 -3776,-11244 -8743,-14489 -1858,-1207 -3716,-2029 -5823,-2560l-728 -180 -43 -1070c-60,-1182 -171,-1524 -702,-2012 -617,-582 -642,-591 -3194,-608 -1267,-9 -2406,17 -2526,51l0 0zm4718 1627l248 248 0 2064c0,2047 0,2055 -206,2295l-206 240 -2158 0 -2158 0 -206 -240c-206,-240 -206,-248 -206,-2295l0 -2064 248 -248 248 -248 2072 0 2072 0 248 248zm-19028 1875c394,437 60,1130 -565,1130 -574,0 -899,-634 -574,-1096 283,-402 788,-420 1139,-34zm36925 20132l248 248 0 1250c0,1190 -9,1250 -206,1481 -206,240 -214,240 -1379,265 -1815,43 -1927,-51 -1927,-1738 0,-1096 120,-1533 445,-1670 111,-43 728,-77 1379,-77l1190 -9 248 248 0 0z"/>
    <path class="fil0" d="M38560 1894c-505,137 -976,488 -1259,959l-223 368 -2552 26 -2560 26 -214 248c-171,206 -206,308 -163,557 94,608 111,608 2929,608l2509 0 128 248c402,771 1122,1216 1978,1216 625,0 1002,-137 1456,-531 1696,-1490 154,-4333 -2029,-3725l0 0zm1113 1644c402,454 86,1147 -522,1147 -608,0 -951,-659 -582,-1130 300,-377 762,-385 1105,-17l0 0z"/>
    <path class="fil0" d="M11072 6553c-4975,3331 -8092,8675 -8598,14712l-51 694 -454 51c-762,77 -1430,539 -1807,1259 -146,265 -163,505 -163,1927 0,1858 60,2064 745,2646 565,488 1045,591 2629,548 1250,-34 1362,-51 1781,-265 445,-231 719,-522 1019,-1088 146,-257 163,-497 163,-1841 0,-1439 -9,-1567 -197,-1944 -360,-719 -1207,-1267 -1970,-1267l-291 0 60 -625c531,-5712 3417,-10593 8092,-13684 1139,-754 1310,-1079 831,-1601 -325,-351 -668,-265 -1790,480zm-6619 16972c351,137 471,548 471,1670 0,1687 -111,1781 -1927,1738 -1165,-26 -1173,-26 -1379,-265 -197,-231 -206,-291 -206,-1481l0 -1250 248 -248 248 -248 1165 0c634,0 1250,34 1379,86l0 0z"/>
    <path class="fil0" d="M21554 9627c-103,43 -985,1156 -6808,8606 -2535,3237 -3057,3956 -3057,4179 0,163 206,634 557,1267 985,1798 1730,3639 2218,5506 514,1944 822,4068 822,5600l0 702 -445 60c-959,120 -1867,788 -2286,1678 -223,462 -223,497 -223,2441 0,1841 9,1995 188,2372 257,565 899,1225 1473,1499l480 240 7407 0 7407 0 480 -240c574,-274 1216,-933 1473,-1499 180,-377 188,-531 188,-2372l0 -1970 -231 -480c-445,-899 -1327,-1550 -2269,-1670l-454 -60 0 -702c0,-1533 274,-3434 771,-5395 522,-2055 1225,-3811 2261,-5695 591,-1070 668,-1362 420,-1713 -360,-522 -5977,-7681 -6123,-7818 -522,-454 -1404,206 -1113,831 43,103 1344,1798 2877,3768 1541,1961 2817,3622 2843,3674 17,60 -231,634 -557,1267 -1841,3571 -2834,7596 -2834,11526 0,1284 9,1327 214,1524 188,188 274,214 891,214 771,0 1062,86 1413,411 428,402 480,642 480,2278 0,1593 -43,1833 -411,2226 -471,497 -180,480 -7724,480 -5703,0 -6988,-17 -7219,-120 -334,-137 -702,-522 -822,-848 -146,-368 -120,-3168 26,-3511 137,-334 522,-702 848,-822 163,-60 1696,-94 4479,-94l4239 0 206 -214c146,-137 214,-300 214,-514 0,-214 -69,-377 -214,-514l-206 -214 -3348 0 -3340 0 0 -839c0,-3374 -1130,-7716 -2877,-11055 -308,-591 -539,-1113 -514,-1173 51,-128 7673,-9882 7724,-9882 17,0 34,2269 34,5035l0 5044 -325 103c-445,154 -1079,625 -1387,1045 -445,617 -625,1225 -582,2004 51,856 257,1344 839,1961 1002,1062 2637,1284 3845,531 445,-283 1028,-942 1233,-1404 265,-608 300,-1636 69,-2252 -334,-891 -1053,-1627 -1824,-1884l-325 -103 -17 -6328 -26 -6337 -240 -206c-223,-188 -557,-248 -814,-146l0 0zm1088 14583c873,437 1147,1636 548,2381 -308,385 -899,702 -1310,702 -599,-9 -1327,-505 -1533,-1053 -206,-548 -17,-1439 385,-1781 514,-445 1327,-548 1910,-248l0 0z"/>
   </g>
  </g>
 </g>
</svg>
