<?xml version="1.0" encoding="UTF-8"?>
<!DOCTYPE svg PUBLIC "-//W3C//DTD SVG 1.1//EN" "http://www.w3.org/Graphics/SVG/1.1/DTD/svg11.dtd">
<!-- Creator: CorelDRAW 2017 -->
<svg xmlns="http://www.w3.org/2000/svg" xml:space="preserve" width="8.5in" height="11in" version="1.1" style="shape-rendering:geometricPrecision; text-rendering:geometricPrecision; image-rendering:optimizeQuality; fill-rule:evenodd; clip-rule:evenodd"
viewBox="0 0 8500 11000"
 xmlns:xlink="http://www.w3.org/1999/xlink">
 <defs>
  <style type="text/css">
   <![CDATA[
    .fil0 {fill:#4EFFA7}
   ]]>
  </style>
 </defs>
 <g id="Layer_x0020_1">
  <metadata id="CorelCorpID_0Corel-Layer"/>
  <path class="fil0" d="M8500 5485c0,30 -15,45 -15,60 8,606 -543,1003 -1149,1003l-1625 0c-440,0 -797,372 -797,812 0,56 7,111 17,164 37,169 108,319 181,496 100,229 201,457 201,697 0,530 -359,1008 -887,1029 -58,2 -118,3 -176,3 -2347,0 -4250,-1903 -4250,-4250 0,-2347 1903,-4250 4250,-4250 2347,0 4250,1903 4250,4250l0 -15zm-6906 0c-293,0 -531,252 -531,531 0,309 238,531 531,531 294,0 531,-222 531,-531 0,-279 -237,-531 -531,-531zm531 -1063c294,0 531,-222 531,-531 0,-279 -237,-531 -531,-531 -294,0 -531,252 -531,531 0,309 237,531 531,531zm2125 -2125c-294,0 -531,253 -531,531 0,309 237,531 531,531 294,0 531,-222 531,-531 0,-278 -237,-531 -531,-531zm2125 2125c294,0 531,-222 531,-531 0,-279 -237,-531 -531,-531 -294,0 -531,252 -531,531 0,309 237,531 531,531z"/>
 </g>
</svg>
