<?xml version="1.0" encoding="UTF-8"?>
<!DOCTYPE svg PUBLIC "-//W3C//DTD SVG 1.1//EN" "http://www.w3.org/Graphics/SVG/1.1/DTD/svg11.dtd">
<!-- Creator: CorelDRAW 2017 -->
<svg xmlns="http://www.w3.org/2000/svg" xml:space="preserve" width="17in" height="12.75in" version="1.1" style="shape-rendering:geometricPrecision; text-rendering:geometricPrecision; image-rendering:optimizeQuality; fill-rule:evenodd; clip-rule:evenodd"
viewBox="0 0 3576 2682"
 xmlns:xlink="http://www.w3.org/1999/xlink">
 <defs>
  <style type="text/css">
   <![CDATA[
    .fil0 {fill:#8FD0FF}
   ]]>
  </style>
 </defs>
 <g id="Layer_x0020_1">
  <metadata id="CorelCorpID_0Corel-Layer"/>
  <path class="fil0" d="M3241 0c185,0 335,150 335,335 0,105 -50,205 -134,268l-1520 1140c-80,59 -189,59 -268,0l-1520 -1140c-84,-64 -134,-163 -134,-268 0,-185 150,-335 335,-335l2905 0zm-1721 1922c159,119 377,119 536,0l1520 -1140 0 1453c0,247 -200,447 -447,447l-2682 0c-247,0 -447,-200 -447,-447l0 -1453 1520 1140z"/>
 </g>
</svg>
