<?xml version="1.0" encoding="UTF-8"?>
<!DOCTYPE svg PUBLIC "-//W3C//DTD SVG 1.1//EN" "http://www.w3.org/Graphics/SVG/1.1/DTD/svg11.dtd">
<!-- Creator: CorelDRAW 2017 -->
<svg xmlns="http://www.w3.org/2000/svg" xml:space="preserve" width="8.5in" height="11in" version="1.1" style="shape-rendering:geometricPrecision; text-rendering:geometricPrecision; image-rendering:optimizeQuality; fill-rule:evenodd; clip-rule:evenodd"
viewBox="0 0 8500 11000"
 xmlns:xlink="http://www.w3.org/1999/xlink">
 <defs>
  <style type="text/css">
   <![CDATA[
    .str0 {stroke:black;stroke-width:53.3307}
    .fil0 {fill:#4EFFA7}
   ]]>
  </style>
 </defs>
 <g id="Layer_x0020_1">
  <metadata id="CorelCorpID_0Corel-Layer"/>
  <path class="fil0 str0" d="M6116 1554c364,-363 951,-363 1315,0l765 765c362,363 362,951 0,1315l-926 925 -2079 -2079 925 -925zm813 3414l-764 2545c-100,330 -352,593 -679,702l-4388 1471c-188,63 -396,17 -538,-121l2549 -2550c105,50 221,78 329,78 455,0 797,-357 797,-797 0,-440 -342,-797 -797,-797 -425,0 -797,357 -797,797 0,123 43,239 93,344l-2550 2550c-138,-143 -185,-350 -122,-540l1471 -4388c95,-327 372,-579 702,-679l2530 -764 2163 2148z"/>
 </g>
</svg>
