<?xml version="1.0" encoding="UTF-8"?>
<!DOCTYPE svg PUBLIC "-//W3C//DTD SVG 1.1//EN" "http://www.w3.org/Graphics/SVG/1.1/DTD/svg11.dtd">
<!-- Creator: CorelDRAW 2017 -->
<svg xmlns="http://www.w3.org/2000/svg" xml:space="preserve" width="14.875in" height="14.8747in" version="1.1" style="shape-rendering:geometricPrecision; text-rendering:geometricPrecision; image-rendering:optimizeQuality; fill-rule:evenodd; clip-rule:evenodd"
viewBox="0 0 120529 120526"
 xmlns:xlink="http://www.w3.org/1999/xlink">
 <defs>
  <style type="text/css">
   <![CDATA[
    .fil0 {fill:#8FD0FF}
   ]]>
  </style>
 </defs>
 <g id="Layer_x0020_1">
  <metadata id="CorelCorpID_0Corel-Layer"/>
  <path class="fil0" d="M26979 120526l-24988 0 0 -80469 24988 0 0 80469zm-12508 -91446c-7990,0 -14472,-6618 -14472,-14609 0,-7991 6481,-14472 14472,-14472 7991,0 14472,6480 14472,14472 0,7990 -6484,14609 -14472,14609l0 0zm106031 91446l-24934 0 0 -39172c0,-9336 -188,-21308 -12992,-21308 -12992,0 -14983,10143 -14983,20635l0 39845 -24961 0 0 -80469 23966 0 0 10977 350 0c3336,-6322 11485,-12995 23643,-12995 25290,0 29939,16653 29939,38284l0 44203 -27 0z"/>
 </g>
</svg>
