<?xml version="1.0" encoding="UTF-8"?>
<!DOCTYPE svg PUBLIC "-//W3C//DTD SVG 1.1//EN" "http://www.w3.org/Graphics/SVG/1.1/DTD/svg11.dtd">
<!-- Creator: CorelDRAW 2017 -->
<svg xmlns="http://www.w3.org/2000/svg" xml:space="preserve" width="9.02842in" height="9.028in" version="1.1" style="shape-rendering:geometricPrecision; text-rendering:geometricPrecision; image-rendering:optimizeQuality; fill-rule:evenodd; clip-rule:evenodd"
viewBox="0 0 1518 1518"
 xmlns:xlink="http://www.w3.org/1999/xlink">
 <defs>
  <style type="text/css">
   <![CDATA[
    .str0 {stroke:#1E1E1E;stroke-width:50.4366;stroke-linecap:round;stroke-linejoin:round}
    .fil2 {fill:none}
    .fil1 {fill:#4ECCAF}
    .fil0 {fill:#6CF5D5}
   ]]>
  </style>
   <clipPath id="id0">
    <path d="M325 0l868 0c179,0 325,146 325,325l0 868c0,179 -146,325 -325,325l-868 0c-179,0 -325,-146 -325,-325l0 -868c0,-179 146,-325 325,-325z"/>
   </clipPath>
 </defs>
 <g id="Layer_x0020_1">
  <metadata id="CorelCorpID_0Corel-Layer"/>
  <path class="fil0" d="M325 0l868 0c179,0 325,146 325,325l0 868c0,179 -146,325 -325,325l-868 0c-179,0 -325,-146 -325,-325l0 -868c0,-179 146,-325 325,-325z"/>
  <g style="clip-path:url(#id0)">
   <g id="_1690811812864">
    <polygon id="1" class="fil1" points="1261,1511 360,1242 349,265 1116,520 1230,440 1518,566 1558,1507 "/>
   </g>
  </g>
  <path class="fil2" d="M325 0l868 0c179,0 325,146 325,325l0 868c0,179 -146,325 -325,325l-868 0c-179,0 -325,-146 -325,-325l0 -868c0,-179 146,-325 325,-325z"/>
  <g>
   <polygon class="fil2 str0" points="778,943 782,1157 577,1085 329,1241 318,264 842,689 1199,438 1199,1033 1079,1033 1079,722 973,802 "/>
  </g>
 </g>
</svg>
