<?xml version="1.0" standalone="no"?>
<!DOCTYPE svg PUBLIC "-//W3C//DTD SVG 20010904//EN"
 "http://www.w3.org/TR/2001/REC-SVG-20010904/DTD/svg10.dtd">
<svg version="1.0" xmlns="http://www.w3.org/2000/svg"
 width="512.000000pt" height="512.000000pt" viewBox="0 0 512.000000 512.000000"
 preserveAspectRatio="xMidYMid meet">

<g transform="translate(0.000000,512.000000) scale(0.100000,-0.100000)"
fill="#000000" stroke="none">
<path d="M2280 5111 c-45 -14 -85 -39 -116 -73 -54 -57 -67 -94 -72 -200 l-4
-98 -652 0 -651 1 -27 44 c-85 140 -281 162 -395 43 -101 -105 -95 -273 12
-367 53 -46 97 -62 171 -62 100 0 175 49 239 155 9 15 48 16 455 14 l445 -3
-115 -57 c-718 -353 -1194 -1039 -1271 -1834 l-12 -122 -52 -5 c-89 -9 -165
-61 -208 -142 -20 -37 -22 -54 -22 -230 0 -177 2 -193 22 -231 31 -58 97 -112
161 -130 79 -23 352 -16 402 10 63 33 95 63 125 117 l30 54 0 180 c0 168 -1
183 -23 227 -42 84 -141 148 -230 148 l-34 0 7 83 c23 271 95 525 217 772 249
498 683 875 1209 1049 74 24 148 47 165 51 l31 6 5 -73 c5 -83 28 -136 80
-184 71 -67 77 -69 360 -72 297 -4 340 3 409 65 57 52 81 104 87 191 l5 73 31
-6 c17 -4 92 -27 166 -51 453 -150 842 -454 1105 -864 70 -108 178 -338 219
-463 44 -135 81 -310 95 -446 15 -139 16 -131 -22 -131 -88 0 -187 -64 -229
-148 -22 -44 -23 -59 -23 -227 0 -157 2 -185 19 -215 35 -66 67 -100 119 -127
49 -25 62 -27 208 -31 185 -5 241 7 307 64 80 68 87 92 87 309 0 176 -2 193
-22 230 -43 81 -119 133 -208 142 l-52 5 -12 122 c-50 519 -271 998 -631 1370
-179 185 -395 343 -628 458 l-127 63 445 3 c407 2 446 1 455 -14 64 -106 139
-155 239 -155 74 0 118 16 171 62 107 94 113 262 12 367 -114 119 -310 97
-395 -43 l-27 -44 -651 -1 -652 0 -4 98 c-5 109 -22 154 -80 208 -72 68 -75
69 -373 71 -148 1 -281 -2 -295 -6z"/>
<path d="M2319 3742 c-19 -20 -240 -301 -491 -624 -379 -485 -458 -592 -458
-617 0 -20 26 -79 72 -162 168 -306 279 -647 323 -989 22 -165 22 -167 45
-190 20 -20 36 -20 750 -20 714 0 730 0 750 20 23 23 25 32 40 165 40 346 163
720 344 1043 59 106 67 142 39 182 -62 90 -948 1212 -963 1220 -30 16 -65 12
-94 -11 l-26 -20 0 -620 c0 -596 1 -620 19 -638 11 -11 35 -27 55 -36 63 -30
123 -92 158 -163 30 -61 33 -74 33 -162 0 -115 -19 -164 -95 -244 -74 -79
-150 -111 -260 -111 -110 0 -186 32 -260 111 -76 80 -95 129 -95 244 0 88 3
101 33 162 35 71 95 133 158 163 20 9 44 25 55 36 18 18 19 42 19 637 l0 619
-23 21 c-38 36 -88 30 -128 -16z"/>
<path d="M1685 956 c-96 -30 -167 -92 -212 -184 l-28 -57 0 -230 c0 -215 1
-233 22 -277 30 -66 105 -143 172 -175 l56 -28 865 0 865 0 47 22 c66 30 143
105 175 172 l28 56 0 230 c0 230 0 230 -27 285 -35 71 -97 133 -167 168 l-56
27 -850 2 c-666 1 -859 -1 -890 -11z"/>
</g>
</svg>
