<?xml version="1.0" encoding="UTF-8"?>
<!DOCTYPE svg PUBLIC "-//W3C//DTD SVG 1.1//EN" "http://www.w3.org/Graphics/SVG/1.1/DTD/svg11.dtd">
<svg xmlns="http://www.w3.org/2000/svg" xml:space="preserve" width="16.9999in" height="13.8071in" version="1.1" style="shape-rendering:geometricPrecision; text-rendering:geometricPrecision; image-rendering:optimizeQuality; fill-rule:evenodd; clip-rule:evenodd"
viewBox="0 0 7522 6109"
 xmlns:xlink="http://www.w3.org/1999/xlink">
 <defs>
  <style type="text/css">
   <![CDATA[
    .fil0 {fill:#8FD0FF}
   ]]>
  </style>
 </defs>
 <g id="Layer_x0020_1">
  <metadata id="CorelCorpID_0Corel-Layer"/>
  <path class="fil0" d="M6749 1523c5,67 5,134 5,200 0,2038 -1551,4386 -4386,4386 -873,0 -1685,-253 -2367,-692 124,14 243,19 372,19 721,0 1384,-243 1914,-659 -678,-14 -1246,-458 -1441,-1069 95,14 191,24 291,24 138,0 277,-19 406,-52 -706,-143 -1236,-764 -1236,-1513l0 -19c205,115 444,186 697,196 -415,-277 -687,-749 -687,-1284 0,-286 76,-549 210,-778 759,935 1900,1546 3179,1613 -24,-115 -38,-234 -38,-353 0,-850 687,-1542 1542,-1542 444,0 845,186 1126,487 348,-67 683,-196 978,-372 -115,358 -358,659 -678,850 310,-33 611,-119 888,-239 -210,305 -472,577 -773,797l0 0z"/>
 </g>
</svg>
