<?xml version="1.0" encoding="UTF-8"?>
<!DOCTYPE svg PUBLIC "-//W3C//DTD SVG 1.1//EN" "http://www.w3.org/Graphics/SVG/1.1/DTD/svg11.dtd">
<!-- Creator: CorelDRAW 2017 -->
<svg xmlns="http://www.w3.org/2000/svg" xml:space="preserve" width="8.5in" height="11in" version="1.1" style="shape-rendering:geometricPrecision; text-rendering:geometricPrecision; image-rendering:optimizeQuality; fill-rule:evenodd; clip-rule:evenodd"
viewBox="0 0 8500 11000"
 xmlns:xlink="http://www.w3.org/1999/xlink">
 <defs>
  <style type="text/css">
   <![CDATA[
    .fil0 {fill:#4EFFA7}
   ]]>
  </style>
 </defs>
 <g id="Layer_x0020_1">
  <metadata id="CorelCorpID_0Corel-Layer"/>
  <path class="fil0" d="M1700 3375l5100 0 0 3400 850 0 0 -3613c0,-350 -287,-638 -638,-638l-5525 0c-350,0 -638,287 -638,638l0 3613 850 0 0 -3400zm6588 3825l-8075 0c-116,0 -213,97 -213,213l0 213c0,468 382,850 850,850l6800 0c468,0 850,-382 850,-850l0 -213c0,-116 -96,-213 -213,-213zm-3428 -1299c52,52 120,77 187,77 68,0 136,-26 188,-78l638 -638c104,-104 104,-272 0,-376l-638 -638c-104,-104 -272,-104 -376,0 -104,104 -104,272 0,376l450 449 -450 449c-104,104 -104,273 1,377zm-1219 -1651c-104,-104 -272,-104 -376,0l-638 638c-104,104 -104,272 0,376l638 638c53,52 121,77 188,77 68,0 136,-26 188,-78 104,-104 104,-272 0,-376l-449 -450 450 -449c92,-103 92,-272 -1,-375z"/>
 </g>
</svg>
